<svg width="32" height="32" viewBox="0 0 32 32" fill="none" xmlns="http://www.w3.org/2000/svg">
  <circle cx="16" cy="16" r="15" fill="white" stroke="#D1D5DB" stroke-width="0.5"/>

  <path d="M8 17.5L13 12H21L18 14.5H23C23 14.5 24 16 24 18C24 20 22.5 21 22.5 21L18.5 19L16 26L13.5 19L8 23L8 17.5Z" fill="black"/>

  <path d="M18.5 14.5L23 14.5C23 14.5 24 16 24 18C24 20 22.5 21 22.5 21L18.5 19V14.5Z" fill="#F97316"/>

  <circle cx="17.5" cy="16" r="1.5" fill="#F97316" stroke="black" stroke-width="0.7"/>

  <path d="M16 26L18.5 19H14.5L16 26Z" fill="#F97316"/>
</svg>